<?xml version="1.0" encoding="utf-8"?>
<!-- Generator: Adobe Illustrator 26.0.1, SVG Export Plug-In . SVG Version: 6.00 Build 0)  -->
<svg version="1.1" xmlns="http://www.w3.org/2000/svg" xmlns:xlink="http://www.w3.org/1999/xlink" x="0px" y="0px"
	 viewBox="0 0 32 32" style="enable-background:new 0 0 32 32;" xml:space="preserve">
<style type="text/css">
	.st0{fill:#BFBEBE;}
	.st1{fill:none;stroke:#FFFFFF;stroke-width:0.75;stroke-miterlimit:10;}
	.st2{fill:#FFFFFF;}
	.st3{font-family:'Heebo-ExtraBold';}
	.st4{font-size:5.0698px;}
</style>
<g id="Camada_1">
</g>
<g id="Camada_2">
	<text transform="matrix(1.0847 0 0 1 4.1529 27.957)" class="st2 st3 st4">(Nkandu)</text>
	<g>
		<line class="st1" x1="12" y1="13.8" x2="10.2" y2="13.8"/>
		<line class="st1" x1="12.4" y1="15.6" x2="10.5" y2="15.6"/>
		<line class="st1" x1="13.8" y1="17.5" x2="12" y2="17.5"/>
		<line class="st1" x1="10.5" y1="15.5" x2="11.9" y2="13.9"/>
		<line class="st1" x1="12.2" y1="15.4" x2="12.2" y2="17.6"/>
		<line class="st1" x1="8.2" y1="20.3" x2="6.4" y2="20.3"/>
		<line class="st1" x1="8.3" y1="18.4" x2="6.5" y2="18.4"/>
		<line class="st1" x1="8.3" y1="16.6" x2="6.5" y2="16.6"/>
		<line class="st1" x1="8.4" y1="18.4" x2="8.3" y2="20.4"/>
		<line class="st1" x1="6.5" y1="16.6" x2="6.5" y2="18.4"/>
		<line class="st1" x1="10.2" y1="17.5" x2="8.4" y2="17.5"/>
		<line class="st1" x1="10.3" y1="15.6" x2="8.4" y2="15.6"/>
		<line class="st1" x1="10.3" y1="13.8" x2="8.5" y2="13.8"/>
		<line class="st1" x1="10.4" y1="15.6" x2="10.3" y2="17.6"/>
		<line class="st1" x1="8.4" y1="13.8" x2="8.4" y2="15.6"/>
		<line class="st1" x1="8.4" y1="16.6" x2="8.4" y2="17.5"/>
		<line class="st1" x1="4.8" y1="20.3" x2="6.6" y2="20.3"/>
		<line class="st1" x1="4.8" y1="18.4" x2="6.6" y2="18.4"/>
		<line class="st1" x1="4.7" y1="16.5" x2="6.6" y2="16.5"/>
		<line class="st1" x1="4.7" y1="18.4" x2="4.7" y2="20.3"/>
		<line class="st1" x1="6.6" y1="16.6" x2="6.6" y2="18.4"/>
		<line class="st1" x1="20.8" y1="14.6" x2="22.6" y2="14.6"/>
		<line class="st1" x1="20.7" y1="16.5" x2="22.6" y2="16.5"/>
		<line class="st1" x1="20.7" y1="18.4" x2="22.6" y2="18.4"/>
		<line class="st1" x1="20.7" y1="16.5" x2="20.7" y2="14.5"/>
		<line class="st1" x1="22.6" y1="18.3" x2="22.6" y2="16.5"/>
		<line class="st1" x1="18.8" y1="16.5" x2="20.7" y2="16.5"/>
		<line class="st1" x1="18.8" y1="18.4" x2="20.6" y2="18.4"/>
		<line class="st1" x1="18.7" y1="20.2" x2="20.6" y2="20.2"/>
		<line class="st1" x1="18.7" y1="18.4" x2="18.8" y2="16.4"/>
		<line class="st1" x1="20.6" y1="20.2" x2="20.6" y2="18.4"/>
		<line class="st1" x1="20.6" y1="18.4" x2="20.6" y2="16.5"/>
		<line class="st1" x1="24.5" y1="14.6" x2="22.6" y2="14.6"/>
		<line class="st1" x1="24.5" y1="16.5" x2="22.7" y2="16.5"/>
		<line class="st1" x1="24.5" y1="18.4" x2="22.7" y2="18.4"/>
		<line class="st1" x1="24.6" y1="16.5" x2="24.5" y2="14.5"/>
		<line class="st1" x1="22.7" y1="18.3" x2="22.7" y2="16.5"/>
		<line class="st1" x1="15.1" y1="20.3" x2="18.8" y2="20.3"/>
		<line class="st1" x1="16.9" y1="20.4" x2="17" y2="16.5"/>
		<line class="st1" x1="15.1" y1="20.3" x2="15.1" y2="16.4"/>
	</g>
</g>
</svg>
