<?xml version="1.0" encoding="utf-8"?>
<!-- Generator: Adobe Illustrator 26.0.1, SVG Export Plug-In . SVG Version: 6.00 Build 0)  -->
<svg version="1.1" xmlns="http://www.w3.org/2000/svg" xmlns:xlink="http://www.w3.org/1999/xlink" x="0px" y="0px"
	 viewBox="0 0 32 32" style="enable-background:new 0 0 32 32;" xml:space="preserve">
<style type="text/css">
	.st0{fill:#BFBEBE;}
	.st1{fill:#FFFFFF;}
	.st2{font-family:'Heebo-ExtraBold';}
	.st3{font-size:5.0698px;}
	.st4{fill:none;stroke:#FFFFFF;stroke-width:0.75;stroke-miterlimit:10;}
</style>
<g id="Camada_1">
</g>
<g id="Camada_2">
	<text transform="matrix(1.0847 0 0 1 1.6466 27.3553)" class="st1 st2 st3">(Mpangala)</text>
	<g>
		<line class="st4" x1="2.5" y1="13.7" x2="2.5" y2="15.6"/>
		<g>
			<line class="st4" x1="5.8" y1="13.7" x2="4.1" y2="13.7"/>
			<line class="st4" x1="5.8" y1="15.6" x2="4.1" y2="15.6"/>
			<line class="st4" x1="5.9" y1="17.5" x2="4.1" y2="17.5"/>
			<line class="st4" x1="5.9" y1="15.6" x2="5.9" y2="13.6"/>
			<line class="st4" x1="4.1" y1="17.5" x2="4.1" y2="15.6"/>
			<line class="st4" x1="7.6" y1="16.5" x2="5.9" y2="16.5"/>
			<line class="st4" x1="7.7" y1="18.5" x2="6" y2="18.5"/>
			<line class="st4" x1="7.7" y1="20.4" x2="6" y2="20.4"/>
			<line class="st4" x1="7.8" y1="18.5" x2="7.7" y2="16.5"/>
			<line class="st4" x1="6" y1="20.3" x2="6" y2="18.5"/>
			<line class="st4" x1="4.2" y1="17.5" x2="2.4" y2="17.5"/>
			<line class="st4" x1="4.2" y1="15.6" x2="2.5" y2="15.6"/>
			<line class="st4" x1="4.2" y1="13.7" x2="2.5" y2="13.7"/>
			<line class="st4" x1="4.3" y1="15.6" x2="4.2" y2="17.6"/>
			<line class="st4" x1="9.4" y1="20.4" x2="7.7" y2="20.4"/>
			<line class="st4" x1="9.7" y1="18.6" x2="8" y2="18.6"/>
			<line class="st4" x1="11.1" y1="16.6" x2="9.3" y2="16.6"/>
			<line class="st4" x1="7.9" y1="18.7" x2="9.3" y2="20.3"/>
			<line class="st4" x1="9.5" y1="18.8" x2="9.5" y2="16.5"/>
			<line class="st4" x1="5.8" y1="17.5" x2="5.8" y2="16.4"/>
			<line class="st4" x1="15.6" y1="14.6" x2="13.9" y2="14.6"/>
			<line class="st4" x1="15.6" y1="16.5" x2="13.9" y2="16.5"/>
			<line class="st4" x1="15.7" y1="18.4" x2="13.9" y2="18.4"/>
			<line class="st4" x1="15.7" y1="16.5" x2="15.6" y2="14.5"/>
			<line class="st4" x1="13.9" y1="18.4" x2="13.9" y2="16.5"/>
			<line class="st4" x1="17.4" y1="16.5" x2="15.7" y2="16.5"/>
			<line class="st4" x1="17.5" y1="18.4" x2="15.8" y2="18.4"/>
			<line class="st4" x1="17.5" y1="20.3" x2="15.8" y2="20.3"/>
			<line class="st4" x1="17.6" y1="18.4" x2="17.5" y2="16.4"/>
			<line class="st4" x1="15.7" y1="20.3" x2="15.7" y2="18.4"/>
			<line class="st4" x1="15.7" y1="18.4" x2="15.7" y2="16.4"/>
			<line class="st4" x1="12.2" y1="14.6" x2="13.8" y2="14.6"/>
			<line class="st4" x1="12.1" y1="16.5" x2="13.8" y2="16.5"/>
			<line class="st4" x1="12.1" y1="18.4" x2="13.8" y2="18.4"/>
			<line class="st4" x1="12" y1="16.5" x2="12.1" y2="14.5"/>
			<line class="st4" x1="13.8" y1="18.4" x2="13.8" y2="16.5"/>
			<line class="st4" x1="19.1" y1="20.3" x2="17.4" y2="20.3"/>
			<line class="st4" x1="19.4" y1="18.6" x2="17.6" y2="18.6"/>
			<line class="st4" x1="20.7" y1="16.6" x2="19" y2="16.6"/>
			<line class="st4" x1="17.6" y1="18.6" x2="19" y2="20.3"/>
			<line class="st4" x1="19.2" y1="18.8" x2="19.2" y2="16.5"/>
			<line class="st4" x1="27" y1="20.4" x2="28.7" y2="20.4"/>
			<line class="st4" x1="26.9" y1="18.5" x2="28.7" y2="18.5"/>
			<line class="st4" x1="26.9" y1="16.5" x2="28.6" y2="16.5"/>
			<line class="st4" x1="26.9" y1="18.5" x2="26.9" y2="20.4"/>
			<line class="st4" x1="28.7" y1="16.6" x2="28.7" y2="18.5"/>
			<line class="st4" x1="25.1" y1="17.5" x2="26.9" y2="17.5"/>
			<line class="st4" x1="25.1" y1="15.6" x2="26.8" y2="15.6"/>
			<line class="st4" x1="25.1" y1="13.7" x2="26.8" y2="13.7"/>
			<line class="st4" x1="25" y1="15.6" x2="25.1" y2="17.6"/>
			<line class="st4" x1="26.8" y1="13.7" x2="26.8" y2="15.6"/>
			<line class="st4" x1="26.9" y1="16.6" x2="26.9" y2="17.5"/>
			<line class="st4" x1="23.4" y1="13.7" x2="25.1" y2="13.7"/>
			<line class="st4" x1="23.1" y1="15.5" x2="24.8" y2="15.5"/>
			<line class="st4" x1="21.7" y1="17.4" x2="23.5" y2="17.4"/>
			<line class="st4" x1="24.9" y1="15.4" x2="23.5" y2="13.7"/>
			<line class="st4" x1="23.3" y1="15.3" x2="23.3" y2="17.6"/>
		</g>
	</g>
</g>
</svg>
