<?xml version="1.0" encoding="utf-8"?>
<!-- Generator: Adobe Illustrator 26.0.1, SVG Export Plug-In . SVG Version: 6.00 Build 0)  -->
<svg version="1.1" xmlns="http://www.w3.org/2000/svg" xmlns:xlink="http://www.w3.org/1999/xlink" x="0px" y="0px"
	 viewBox="0 0 32 32" style="enable-background:new 0 0 32 32;" xml:space="preserve">
<style type="text/css">
	.st0{fill:#BFBEBE;}
	.st1{fill:none;stroke:#FFFFFF;stroke-width:0.75;stroke-miterlimit:10;}
	.st2{fill:#FFFFFF;}
	.st3{font-family:'Heebo-ExtraBold';}
	.st4{font-size:5.0698px;}
</style>
<g id="Camada_1">
</g>
<g id="Camada_2">
	<text transform="matrix(1.0847 0 0 1 4.2464 26.8263)" class="st2 st3 st4">(Nkenge)</text>
	<g>
		<line class="st1" x1="9.5" y1="17.9" x2="9.5" y2="16.9"/>
		<line class="st1" x1="19.6" y1="15.1" x2="18" y2="15.1"/>
		<line class="st1" x1="19.7" y1="16.9" x2="18" y2="16.9"/>
		<line class="st1" x1="19.7" y1="18.6" x2="18.1" y2="18.6"/>
		<line class="st1" x1="19.8" y1="16.9" x2="19.7" y2="15"/>
		<line class="st1" x1="18" y1="18.6" x2="18" y2="16.9"/>
		<line class="st1" x1="21.4" y1="16.9" x2="19.8" y2="16.9"/>
		<line class="st1" x1="21.4" y1="18.7" x2="19.8" y2="18.7"/>
		<line class="st1" x1="21.5" y1="20.5" x2="19.8" y2="20.5"/>
		<line class="st1" x1="21.5" y1="18.7" x2="21.4" y2="16.8"/>
		<line class="st1" x1="19.8" y1="20.4" x2="19.8" y2="18.7"/>
		<line class="st1" x1="19.8" y1="18.7" x2="19.8" y2="16.8"/>
		<line class="st1" x1="16.4" y1="15.1" x2="18" y2="15.1"/>
		<line class="st1" x1="16.3" y1="16.9" x2="17.9" y2="16.9"/>
		<line class="st1" x1="16.3" y1="18.6" x2="17.9" y2="18.6"/>
		<line class="st1" x1="17.9" y1="18.6" x2="17.9" y2="16.9"/>
		<line class="st1" x1="23.9" y1="16.9" x2="25.5" y2="16.9"/>
		<line class="st1" x1="23.6" y1="18.6" x2="25.2" y2="18.6"/>
		<line class="st1" x1="21.2" y1="20.4" x2="23.8" y2="20.4"/>
		<line class="st1" x1="23.7" y1="18.4" x2="23.7" y2="16.8"/>
		<line class="st1" x1="23.7" y1="20.6" x2="23.7" y2="18.4"/>
		<line class="st1" x1="9.5" y1="20.5" x2="7.9" y2="20.5"/>
		<line class="st1" x1="9.6" y1="18.7" x2="7.9" y2="18.7"/>
		<line class="st1" x1="9.6" y1="16.9" x2="7.9" y2="16.9"/>
		<line class="st1" x1="9.6" y1="18.7" x2="9.6" y2="20.6"/>
		<line class="st1" x1="7.9" y1="17" x2="7.9" y2="18.7"/>
		<line class="st1" x1="11.3" y1="17.8" x2="9.6" y2="17.8"/>
		<line class="st1" x1="11.3" y1="16" x2="9.7" y2="16"/>
		<line class="st1" x1="11.3" y1="14.3" x2="9.7" y2="14.3"/>
		<line class="st1" x1="11.4" y1="16" x2="11.3" y2="17.9"/>
		<line class="st1" x1="9.7" y1="14.3" x2="9.7" y2="16"/>
		<line class="st1" x1="7.9" y1="16.9" x2="6.3" y2="16.9"/>
		<line class="st1" x1="8" y1="18.7" x2="6.3" y2="18.7"/>
		<line class="st1" x1="8" y1="20.5" x2="6.3" y2="20.5"/>
		<line class="st1" x1="8.1" y1="18.7" x2="8" y2="16.9"/>
		<line class="st1" x1="6.3" y1="20.5" x2="6.3" y2="18.7"/>
		<line class="st1" x1="13.6" y1="17.8" x2="15.2" y2="17.8"/>
		<line class="st1" x1="13.3" y1="16.1" x2="14.9" y2="16.1"/>
		<line class="st1" x1="10.9" y1="14.3" x2="13.5" y2="14.3"/>
		<line class="st1" x1="13.4" y1="16.3" x2="13.4" y2="17.9"/>
		<line class="st1" x1="13.5" y1="14.1" x2="13.5" y2="16.3"/>
		<line class="st1" x1="16.4" y1="16.7" x2="16.4" y2="14.8"/>
	</g>
</g>
</svg>
