<?xml version="1.0" encoding="utf-8"?>
<!-- Generator: Adobe Illustrator 26.0.1, SVG Export Plug-In . SVG Version: 6.00 Build 0)  -->
<svg version="1.1" xmlns="http://www.w3.org/2000/svg" xmlns:xlink="http://www.w3.org/1999/xlink" x="0px" y="0px"
	 viewBox="0 0 32 32" style="enable-background:new 0 0 32 32;" xml:space="preserve">
<style type="text/css">
	.st0{fill:#BFBEBE;}
	.st1{fill:none;stroke:#FFFFFF;stroke-width:0.75;stroke-miterlimit:10;}
	.st2{fill:#FFFFFF;}
	.st3{font-family:'Heebo-ExtraBold';}
	.st4{font-size:5.0698px;}
</style>
<g id="Camada_1">
</g>
<g id="Camada_2">
	<text transform="matrix(1.0847 0 0 1 6.2573 30.0006)" class="st2 st3 st4">(Konzo)</text>
	<g>
		<line class="st1" x1="11.6" y1="17.2" x2="9.6" y2="17.2"/>
		<line class="st1" x1="11.9" y1="18.7" x2="10" y2="18.7"/>
		<line class="st1" x1="10.2" y1="19" x2="11.5" y2="20.3"/>
		<line class="st1" x1="11.7" y1="18.6" x2="13.6" y2="18.6"/>
		<line class="st1" x1="11.7" y1="17.2" x2="11.7" y2="20.4"/>
		<line class="st1" x1="7.6" y1="22.7" x2="5.7" y2="22.7"/>
		<line class="st1" x1="7.7" y1="21.1" x2="5.7" y2="21.1"/>
		<line class="st1" x1="7.7" y1="19.6" x2="5.7" y2="19.6"/>
		<line class="st1" x1="7.7" y1="21.1" x2="7.7" y2="22.8"/>
		<line class="st1" x1="5.7" y1="19.6" x2="5.7" y2="21.1"/>
		<line class="st1" x1="9.7" y1="20.4" x2="7.7" y2="20.4"/>
		<line class="st1" x1="9.7" y1="18.8" x2="7.8" y2="18.8"/>
		<line class="st1" x1="9.8" y1="17.2" x2="7.8" y2="17.2"/>
		<line class="st1" x1="9.8" y1="18.8" x2="9.7" y2="20.4"/>
		<line class="st1" x1="7.8" y1="17.3" x2="7.8" y2="18.8"/>
		<line class="st1" x1="7.7" y1="19.6" x2="7.7" y2="20.3"/>
		<line class="st1" x1="24.9" y1="22.7" x2="23" y2="22.7"/>
		<line class="st1" x1="25" y1="21.1" x2="23" y2="21.1"/>
		<line class="st1" x1="25" y1="19.5" x2="23" y2="19.5"/>
		<line class="st1" x1="25.1" y1="21.1" x2="25" y2="22.7"/>
		<line class="st1" x1="23" y1="19.6" x2="23" y2="21.1"/>
		<line class="st1" x1="21" y1="22.7" x2="23" y2="22.7"/>
		<line class="st1" x1="21" y1="21.1" x2="22.9" y2="21.1"/>
		<line class="st1" x1="20.9" y1="19.5" x2="22.9" y2="19.5"/>
		<line class="st1" x1="20.9" y1="21.1" x2="21" y2="22.7"/>
		<line class="st1" x1="22.9" y1="19.6" x2="22.9" y2="21.1"/>
		<line class="st1" x1="18.9" y1="18.5" x2="20.9" y2="18.5"/>
		<line class="st1" x1="18.9" y1="16.9" x2="20.8" y2="16.9"/>
		<line class="st1" x1="18.9" y1="15.4" x2="20.8" y2="15.4"/>
		<line class="st1" x1="18.8" y1="16.9" x2="18.9" y2="18.6"/>
		<line class="st1" x1="20.8" y1="15.4" x2="20.8" y2="16.9"/>
		<line class="st1" x1="20.9" y1="18.6" x2="20.9" y2="19.7"/>
		<line class="st1" x1="15.1" y1="15.4" x2="19" y2="15.4"/>
		<line class="st1" x1="17" y1="15.3" x2="17" y2="18.6"/>
		<line class="st1" x1="15.1" y1="15.4" x2="15.1" y2="18.7"/>
	</g>
</g>
</svg>
