<?xml version="1.0" encoding="utf-8"?>
<!-- Generator: Adobe Illustrator 26.0.1, SVG Export Plug-In . SVG Version: 6.00 Build 0)  -->
<svg version="1.1" xmlns="http://www.w3.org/2000/svg" xmlns:xlink="http://www.w3.org/1999/xlink" x="0px" y="0px"
	 viewBox="0 0 32 32" style="enable-background:new 0 0 32 32;" xml:space="preserve">
<style type="text/css">
	.st0{display:none;}
	.st1{display:inline;}
	.st2{fill:#D8D8D8;}
	.st3{stroke:#000000;stroke-width:2.0126;stroke-linejoin:round;stroke-miterlimit:10;}
</style>
<g id="Camada_1" class="st0">
	<g class="st1">
		<rect x="-21.5" y="-758.5" class="st2" width="124" height="862"/>
		<path d="M102-758v861H-21v-861H102 M103-759H-22v863h125V-759L103-759z"/>
	</g>
</g>
<g id="Camada_2">
	<g>
		<line class="st3" x1="23.8" y1="24.5" x2="19.9" y2="24.5"/>
		<line class="st3" x1="23.9" y1="18.6" x2="20" y2="18.6"/>
		<line class="st3" x1="23.9" y1="12.7" x2="20.1" y2="12.7"/>
		<line class="st3" x1="24" y1="18.6" x2="23.9" y2="24.8"/>
		<line class="st3" x1="20" y1="12.7" x2="20" y2="18.6"/>
		<line class="st3" x1="24.1" y1="12.9" x2="24.1" y2="18.7"/>
		<line class="st3" x1="11.2" y1="12.7" x2="7.4" y2="12.7"/>
		<line class="st3" x1="11.5" y1="12.4" x2="11.5" y2="24.8"/>
		<line class="st3" x1="15" y1="12.7" x2="11.2" y2="12.7"/>
		<line class="st3" x1="15.3" y1="12.4" x2="15.3" y2="24.8"/>
	</g>
</g>
</svg>
