<?xml version="1.0" encoding="utf-8"?>
<!-- Generator: Adobe Illustrator 26.0.1, SVG Export Plug-In . SVG Version: 6.00 Build 0)  -->
<svg version="1.1" xmlns="http://www.w3.org/2000/svg" xmlns:xlink="http://www.w3.org/1999/xlink" x="0px" y="0px"
	 viewBox="0 0 32 32" style="enable-background:new 0 0 32 32;" xml:space="preserve">
<style type="text/css">
	.st0{display:none;}
	.st1{display:inline;}
	.st2{fill:#D8D8D8;}
	.st3{stroke:#000000;stroke-width:2.0126;stroke-linejoin:round;stroke-miterlimit:10;}
</style>
<g id="Camada_1" class="st0">
	<g class="st1">
		<rect x="-73.5" y="-706.5" class="st2" width="124" height="862"/>
		<path d="M50-706v861H-73v-861H50 M51-707H-74v863H51V-707L51-707z"/>
	</g>
</g>
<g id="Camada_2">
	<g>
		<line class="st3" x1="19.5" y1="22.4" x2="23.1" y2="22.4"/>
		<line class="st3" x1="19.5" y1="16.5" x2="23.1" y2="16.5"/>
		<line class="st3" x1="19.4" y1="10.7" x2="23" y2="10.7"/>
		<line class="st3" x1="19.3" y1="16.5" x2="19.4" y2="22.6"/>
		<line class="st3" x1="23.1" y1="10.8" x2="23" y2="16.5"/>
		<line class="st3" x1="19.2" y1="10.9" x2="19.2" y2="16.7"/>
		<line class="st3" x1="11" y1="10.7" x2="7.3" y2="10.7"/>
		<line class="st3" x1="11.2" y1="10.5" x2="11.2" y2="22.6"/>
		<line class="st3" x1="14.5" y1="10.7" x2="11" y2="10.7"/>
		<line class="st3" x1="14.8" y1="10.5" x2="14.8" y2="22.6"/>
	</g>
</g>
</svg>
