<?xml version="1.0" encoding="utf-8"?>
<!-- Generator: Adobe Illustrator 26.0.1, SVG Export Plug-In . SVG Version: 6.00 Build 0)  -->
<svg version="1.1" xmlns="http://www.w3.org/2000/svg" xmlns:xlink="http://www.w3.org/1999/xlink" x="0px" y="0px"
	 viewBox="0 0 32 32" style="enable-background:new 0 0 32 32;" xml:space="preserve">
<style type="text/css">
	.st0{display:none;}
	.st1{display:inline;}
	.st2{fill:#D8D8D8;}
	.st3{stroke:#FF0000;stroke-width:2.0126;stroke-linejoin:round;stroke-miterlimit:10;}
</style>
<g id="Camada_1" class="st0">
	<g class="st1">
		<rect x="-73.5" y="-654.5" class="st2" width="124" height="862"/>
		<path d="M50-654v861H-73v-861H50 M51-655H-74v863H51V-655L51-655z"/>
	</g>
</g>
<g id="Camada_2">
	<g>
		<line class="st3" x1="20.4" y1="11" x2="24.8" y2="11"/>
		<line class="st3" x1="20.3" y1="16.8" x2="24.7" y2="16.8"/>
		<line class="st3" x1="20.2" y1="22.7" x2="24.6" y2="22.7"/>
		<line class="st3" x1="20.1" y1="16.8" x2="20.3" y2="10.7"/>
		<line class="st3" x1="24.7" y1="22.6" x2="24.7" y2="16.8"/>
		<line class="st3" x1="20.1" y1="22.5" x2="20.1" y2="16.6"/>
		<line class="st3" x1="10" y1="10.7" x2="5.7" y2="10.7"/>
		<line class="st3" x1="10.3" y1="10.5" x2="10.3" y2="22.7"/>
		<line class="st3" x1="14.4" y1="10.7" x2="10" y2="10.7"/>
		<line class="st3" x1="14.7" y1="10.5" x2="14.7" y2="22.7"/>
	</g>
</g>
</svg>
