<?xml version="1.0" encoding="utf-8"?>
<!-- Generator: Adobe Illustrator 26.0.1, SVG Export Plug-In . SVG Version: 6.00 Build 0)  -->
<svg version="1.1" xmlns="http://www.w3.org/2000/svg" xmlns:xlink="http://www.w3.org/1999/xlink" x="0px" y="0px"
	 viewBox="0 0 32 32" style="enable-background:new 0 0 32 32;" xml:space="preserve">
<style type="text/css">
	.st0{fill:#BFBEBE;}
	.st1{fill:none;stroke:#FFFFFF;stroke-width:0.75;stroke-miterlimit:10;}
	.st2{fill:#FFFFFF;}
	.st3{font-family:'Heebo-ExtraBold';}
	.st4{font-size:5.0698px;}
</style>
<g id="Camada_1">
</g>
<g id="Camada_2">
	<text transform="matrix(1.0847 0 0 1 6.15 28.356)" class="st2 st3 st4">(Nsona)</text>
	<g>
		<line class="st1" x1="11.2" y1="21.3" x2="13.2" y2="21.3"/>
		<line class="st1" x1="11.1" y1="19.5" x2="13.1" y2="19.5"/>
		<line class="st1" x1="11.1" y1="17.8" x2="13.1" y2="17.8"/>
		<line class="st1" x1="11" y1="19.5" x2="11.1" y2="21.4"/>
		<line class="st1" x1="13.1" y1="17.8" x2="13.1" y2="19.5"/>
		<line class="st1" x1="9.2" y1="17.7" x2="11.2" y2="17.7"/>
		<line class="st1" x1="9.1" y1="16" x2="11.1" y2="16"/>
		<line class="st1" x1="9.1" y1="14.2" x2="11.1" y2="14.2"/>
		<line class="st1" x1="9.1" y1="16" x2="9.1" y2="17.8"/>
		<line class="st1" x1="11.1" y1="14.2" x2="11.1" y2="16"/>
		<line class="st1" x1="15.2" y1="21.3" x2="13.2" y2="21.3"/>
		<line class="st1" x1="15.2" y1="19.5" x2="13.2" y2="19.5"/>
		<line class="st1" x1="15.3" y1="17.8" x2="13.3" y2="17.8"/>
		<line class="st1" x1="15.3" y1="19.5" x2="15.2" y2="21.4"/>
		<line class="st1" x1="13.2" y1="17.8" x2="13.2" y2="19.5"/>
		<line class="st1" x1="7.1" y1="14.2" x2="9.1" y2="14.2"/>
		<line class="st1" x1="6.8" y1="15.9" x2="8.8" y2="15.9"/>
		<line class="st1" x1="8.6" y1="16.3" x2="7.2" y2="17.7"/>
		<line class="st1" x1="7" y1="15.8" x2="5" y2="15.8"/>
		<line class="st1" x1="7" y1="14.1" x2="7" y2="17.8"/>
		<line class="st1" x1="23.8" y1="14.3" x2="21.8" y2="14.3"/>
		<line class="st1" x1="24.1" y1="15.9" x2="22.1" y2="15.9"/>
		<line class="st1" x1="25.7" y1="17.8" x2="23.7" y2="17.8"/>
		<line class="st1" x1="22" y1="15.9" x2="23.6" y2="14.3"/>
		<line class="st1" x1="23.9" y1="15.8" x2="23.9" y2="17.9"/>
		<line class="st1" x1="19.7" y1="21.4" x2="17.7" y2="21.4"/>
		<line class="st1" x1="19.8" y1="19.6" x2="17.8" y2="19.6"/>
		<line class="st1" x1="19.8" y1="17.9" x2="17.8" y2="17.9"/>
		<line class="st1" x1="19.9" y1="19.6" x2="19.8" y2="21.5"/>
		<line class="st1" x1="17.8" y1="17.9" x2="17.8" y2="19.6"/>
		<line class="st1" x1="21.7" y1="17.8" x2="19.7" y2="17.8"/>
		<line class="st1" x1="21.8" y1="16.1" x2="19.8" y2="16.1"/>
		<line class="st1" x1="21.8" y1="14.3" x2="19.8" y2="14.3"/>
		<line class="st1" x1="21.9" y1="16.1" x2="21.8" y2="17.9"/>
		<line class="st1" x1="19.8" y1="14.3" x2="19.8" y2="16.1"/>
	</g>
</g>
</svg>
