<?xml version="1.0" encoding="utf-8"?>
<!-- Generator: Adobe Illustrator 26.0.1, SVG Export Plug-In . SVG Version: 6.00 Build 0)  -->
<svg version="1.1" xmlns="http://www.w3.org/2000/svg" xmlns:xlink="http://www.w3.org/1999/xlink" x="0px" y="0px"
	 viewBox="0 0 32 32" style="enable-background:new 0 0 32 32;" xml:space="preserve">
<style type="text/css">
	.st0{fill:#BFBEBE;}
	.st1{fill:none;stroke:#FFFFFF;stroke-width:0.75;stroke-miterlimit:10;}
	.st2{fill:#FFFFFF;}
	.st3{font-family:'Heebo-ExtraBold';}
	.st4{font-size:5.0698px;}
	.st5{fill:#29A9E1;stroke:#FFFFFF;stroke-width:0.75;stroke-miterlimit:10;}
	.st6{font-family:'Montserrat-Regular';}
	.st7{font-size:3.662px;}
</style>
<g id="Camada_1">
</g>
<g id="Camada_2">
	<text transform="matrix(1.0847 0 0 1 6.852 29.685)" class="st2 st3 st4">(Ndele)</text>
	<g>
		<text transform="matrix(1.0847 0 0 1 15.9511 23.6576)" class="st5 st6 st7"> </text>
		<line class="st1" x1="12.5" y1="16.6" x2="14.3" y2="16.6"/>
		<line class="st1" x1="12.4" y1="18.4" x2="14.2" y2="18.4"/>
		<line class="st1" x1="12.4" y1="20.2" x2="14.2" y2="20.2"/>
		<line class="st1" x1="12.4" y1="18.4" x2="12.4" y2="16.5"/>
		<line class="st1" x1="14.2" y1="20.2" x2="14.2" y2="18.4"/>
		<line class="st1" x1="10.6" y1="18.4" x2="12.4" y2="18.4"/>
		<line class="st1" x1="10.6" y1="20.2" x2="12.3" y2="20.2"/>
		<line class="st1" x1="10.5" y1="22" x2="12.3" y2="22"/>
		<line class="st1" x1="10.5" y1="20.2" x2="10.6" y2="18.3"/>
		<line class="st1" x1="12.3" y1="22" x2="12.3" y2="20.2"/>
		<line class="st1" x1="12.4" y1="20.3" x2="12.4" y2="18.4"/>
		<line class="st1" x1="16" y1="16.6" x2="14.3" y2="16.6"/>
		<line class="st1" x1="16.1" y1="18.4" x2="14.3" y2="18.4"/>
		<line class="st1" x1="16.1" y1="20.2" x2="14.3" y2="20.2"/>
		<line class="st1" x1="16.2" y1="18.4" x2="16.1" y2="16.5"/>
		<line class="st1" x1="14.3" y1="20.2" x2="14.3" y2="18.4"/>
		<line class="st1" x1="8" y1="18.5" x2="6.2" y2="18.5"/>
		<line class="st1" x1="8.3" y1="20.2" x2="6.5" y2="20.2"/>
		<line class="st1" x1="10.9" y1="22" x2="8.1" y2="22"/>
		<line class="st1" x1="8.2" y1="20" x2="8.2" y2="18.3"/>
		<line class="st1" x1="8.1" y1="22.2" x2="8.1" y2="20"/>
		<line class="st1" x1="23.2" y1="22" x2="24.9" y2="22"/>
		<line class="st1" x1="23.1" y1="20.2" x2="24.9" y2="20.2"/>
		<line class="st1" x1="23.1" y1="18.4" x2="24.8" y2="18.4"/>
		<line class="st1" x1="23" y1="20.2" x2="23.1" y2="22.1"/>
		<line class="st1" x1="24.9" y1="18.4" x2="24.9" y2="20.2"/>
		<line class="st1" x1="21.3" y1="19.3" x2="23" y2="19.3"/>
		<line class="st1" x1="21.2" y1="17.5" x2="23" y2="17.5"/>
		<line class="st1" x1="21.2" y1="15.7" x2="22.9" y2="15.7"/>
		<line class="st1" x1="21.1" y1="17.5" x2="21.2" y2="19.4"/>
		<line class="st1" x1="23" y1="15.7" x2="23" y2="17.5"/>
		<line class="st1" x1="23" y1="18.5" x2="23" y2="19.3"/>
		<line class="st1" x1="18.9" y1="19.3" x2="17.1" y2="19.3"/>
		<line class="st1" x1="19.2" y1="17.6" x2="17.4" y2="17.6"/>
		<line class="st1" x1="21.8" y1="15.8" x2="19" y2="15.8"/>
		<line class="st1" x1="19.1" y1="17.8" x2="19.1" y2="19.4"/>
		<line class="st1" x1="19" y1="15.6" x2="19" y2="17.8"/>
	</g>
</g>
</svg>
