<?xml version="1.0" encoding="utf-8"?>
<!-- Generator: Adobe Illustrator 26.0.1, SVG Export Plug-In . SVG Version: 6.00 Build 0)  -->
<svg version="1.1" xmlns="http://www.w3.org/2000/svg" xmlns:xlink="http://www.w3.org/1999/xlink" x="0px" y="0px"
	 viewBox="0 0 32 32" style="enable-background:new 0 0 32 32;" xml:space="preserve">
<style type="text/css">
	.st0{fill:none;stroke:#ffff;stroke-width:0.75;stroke-miterlimit:10;}
</style>
<g id="Camada_1">
</g>
<g id="Camada_2">
	<g>
		<g>
			<line class="st0" x1="22.8" y1="19" x2="24.7" y2="19"/>
			<line class="st0" x1="22.7" y1="17.1" x2="24.6" y2="17.1"/>
			<line class="st0" x1="22.7" y1="15.2" x2="24.6" y2="15.2"/>
			<line class="st0" x1="22.6" y1="17.1" x2="22.7" y2="19.1"/>
			<line class="st0" x1="24.6" y1="15.3" x2="24.6" y2="17.1"/>
			<line class="st0" x1="20.8" y1="16.2" x2="22.6" y2="16.2"/>
			<line class="st0" x1="20.7" y1="14.3" x2="22.6" y2="14.3"/>
			<line class="st0" x1="20.7" y1="12.4" x2="22.6" y2="12.4"/>
			<line class="st0" x1="20.6" y1="14.3" x2="20.7" y2="16.3"/>
			<line class="st0" x1="22.6" y1="12.4" x2="22.6" y2="14.3"/>
			<line class="st0" x1="22.6" y1="15.3" x2="22.6" y2="16.2"/>
			<line class="st0" x1="18.9" y1="12.4" x2="20.7" y2="12.4"/>
			<line class="st0" x1="18.6" y1="14.2" x2="20.4" y2="14.2"/>
			<line class="st0" x1="17.1" y1="16.1" x2="18.9" y2="16.1"/>
			<line class="st0" x1="20.5" y1="14.1" x2="19" y2="12.5"/>
			<line class="st0" x1="18.7" y1="14" x2="18.7" y2="16.2"/>
			<line class="st0" x1="10.6" y1="19.1" x2="8.7" y2="19.1"/>
			<line class="st0" x1="10.6" y1="17.2" x2="8.8" y2="17.2"/>
			<line class="st0" x1="10.7" y1="15.3" x2="8.8" y2="15.3"/>
			<line class="st0" x1="10.7" y1="17.2" x2="10.6" y2="19.2"/>
			<line class="st0" x1="8.8" y1="15.3" x2="8.8" y2="17.2"/>
			<line class="st0" x1="12.6" y1="17.2" x2="10.7" y2="17.2"/>
			<line class="st0" x1="12.7" y1="15.3" x2="10.8" y2="15.3"/>
			<line class="st0" x1="12.7" y1="13.4" x2="10.8" y2="13.4"/>
			<line class="st0" x1="12.7" y1="15.3" x2="12.7" y2="17.3"/>
			<line class="st0" x1="10.8" y1="13.4" x2="10.8" y2="15.3"/>
			<line class="st0" x1="10.8" y1="15.3" x2="10.8" y2="17.3"/>
			<line class="st0" x1="6.9" y1="19.1" x2="8.7" y2="19.1"/>
			<line class="st0" x1="6.8" y1="17.2" x2="8.7" y2="17.2"/>
			<line class="st0" x1="6.8" y1="15.3" x2="8.6" y2="15.3"/>
			<line class="st0" x1="6.7" y1="17.2" x2="6.8" y2="19.2"/>
			<line class="st0" x1="8.7" y1="15.3" x2="8.7" y2="17.2"/>
			<line class="st0" x1="14.5" y1="13.4" x2="12.6" y2="13.4"/>
			<line class="st0" x1="14.8" y1="15.1" x2="13" y2="15.1"/>
			<line class="st0" x1="16.3" y1="17.1" x2="14.4" y2="17.1"/>
			<line class="st0" x1="12.9" y1="15.1" x2="14.4" y2="13.4"/>
			<line class="st0" x1="14.7" y1="15" x2="14.7" y2="17.2"/>
		</g>
	</g>
</g>
</svg>
